<svg width="40" height="38" viewBox="0 0 40 38" fill="none" xmlns="http://www.w3.org/2000/svg">
<path d="M23.4333 37.2004C16.4778 37.2004 9.56526 37.1956 2.65275 37.2049C1.42933 37.2066 -0.00810911 36.0071 3.44442e-05 34.5733C0.00539572 33.6293 0.489485 32.9306 0.878692 32.1702C1.47558 31.0041 2.0995 29.8517 2.72143 28.6985C4.05676 26.2226 5.40156 23.7519 6.73571 21.2753C7.47582 19.9015 8.19616 18.5171 8.93624 17.1432C10.2638 14.6787 11.6021 12.22 12.9309 9.75621C13.6511 8.4208 14.359 7.07876 15.0761 5.74163C15.8791 4.24421 16.6585 2.73313 17.5029 1.25933C17.9369 0.501844 18.6713 0.0987134 19.5463 0.0263109C20.3419 -0.0395214 21.1562 -0.0205055 21.7823 0.549063C22.1883 0.918433 22.5513 1.37014 22.8201 1.84868C23.6038 3.24368 24.325 4.67359 25.0807 6.08448C26.1328 8.04891 27.1953 10.0078 28.2509 11.9704C29.0682 13.4902 29.8807 15.0127 30.6971 16.5331C31.9751 18.913 33.2548 21.292 34.5335 23.6715C35.3578 25.2053 36.1783 26.741 37.0068 28.2724C37.9006 29.9248 38.854 31.5475 39.6839 33.2312C40.4037 34.6914 39.8848 36.3253 38.224 37.0151C37.8991 37.1501 37.5149 37.192 37.1579 37.1929C32.5974 37.2043 28.0369 37.2004 23.4333 37.2004ZM18.1878 13.4897C18.2727 17.1726 18.3559 20.8555 18.444 24.5384C18.4655 25.4395 19.1313 26.0961 19.9997 26.0916C20.8525 26.0871 21.5148 25.443 21.5358 24.5626C21.6555 19.5471 21.7718 14.5314 21.8804 9.51563C21.9058 8.34044 21.1126 7.50882 20.0026 7.50499C18.8684 7.50107 18.0816 8.33175 18.1005 9.53438C18.1208 10.8243 18.1571 12.1139 18.1878 13.4897ZM21.509 32.4759C22.1544 31.6776 22.2355 30.7685 21.7319 29.9758C21.2621 29.2363 20.3722 28.8667 19.5398 29.0652C18.6815 29.2698 18.0493 29.963 17.9372 30.8224C17.8261 31.674 18.2767 32.5146 19.0591 32.9154C19.8713 33.3315 20.724 33.1916 21.509 32.4759Z" fill="#FF7070"/>
</svg>
