<svg width="17" height="23" viewBox="0 0 17 23" fill="none" xmlns="http://www.w3.org/2000/svg">
<path fill-rule="evenodd" clip-rule="evenodd" d="M9.13879 0.0604406C9.11904 0.0401717 9.09757 0.0181388 9.06993 0C8.66686 0 8.28519 0 7.90202 0.0155936C7.88515 0.0465572 7.87275 0.0687668 7.85399 0.0763055C7.25821 0.315696 6.85982 0.714063 6.69161 1.33054C6.65914 1.44955 6.49153 1.59618 6.36564 1.61755C6.09031 1.6643 5.80565 1.66644 5.52313 1.66857C5.48699 1.66884 5.45088 1.66912 5.41484 1.66948C5.09944 1.67267 4.94537 1.67309 4.86991 1.75031C4.79751 1.82441 4.79747 1.96922 4.79675 2.25503C4.79409 3.31139 5.46742 4.05426 6.56915 4.07825C7.93666 4.10802 9.30642 4.07696 10.6743 4.04082C11.3381 4.02328 11.9767 3.47919 12.0987 2.8467C12.1519 2.57023 12.147 2.28251 12.1421 1.99688C12.1409 1.93158 12.1398 1.86638 12.1394 1.80146C12.1391 1.75807 12.0202 1.68058 11.9539 1.67821C11.757 1.67117 11.5599 1.67162 11.3628 1.67207C11.2021 1.67244 11.0415 1.6728 10.8809 1.66911C10.5498 1.66151 10.3475 1.56644 10.2486 1.22667C10.0949 0.6985 9.74549 0.322082 9.20817 0.115279C9.18265 0.105456 9.16189 0.0841558 9.13879 0.0604406ZM0.0160616 2.7909C0 9.0147 0 15.2171 0 21.4196C0.0143111 21.4333 0.0303495 21.4462 0.046388 21.4592C0.081026 21.4871 0.115664 21.5151 0.132903 21.5508C0.32014 21.939 0.613141 22.2201 1.01871 22.3952C1.04777 22.4078 1.07273 22.4291 1.10305 22.4551C1.12052 22.47 1.13977 22.4865 1.1626 22.5036C6.05885 22.5191 10.933 22.5191 15.8071 22.5191C15.8246 22.5058 15.8415 22.4913 15.8584 22.4769C15.8948 22.4457 15.9311 22.4146 15.9733 22.3952C16.661 22.0805 16.9962 21.5592 16.9959 20.8261C16.9958 20.253 16.9956 19.6799 16.9954 19.1068C16.9936 13.8529 16.9919 8.59903 17 3.34514C17.0011 2.62836 16.5514 1.90928 15.6519 1.6892C15.5938 1.67499 15.5314 1.67294 15.4709 1.67284C15.2401 1.67249 15.0093 1.67285 14.7785 1.6732C14.2784 1.67396 13.7783 1.67472 13.2783 1.66834C13.0782 1.66579 13.0096 1.72807 13.0174 1.92058C13.0361 2.38154 13.019 2.83665 12.8518 3.28249C12.5188 4.17055 11.5052 4.8811 10.5275 4.88205C9.24992 4.8833 7.97231 4.88283 6.69471 4.88235L6.53048 4.88229C5.13931 4.88178 3.97606 3.76501 3.97453 2.42949C3.97446 2.36913 3.97399 2.30877 3.97352 2.24841C3.9725 2.11818 3.97148 1.98796 3.97451 1.85782C3.97749 1.73012 3.92783 1.67119 3.78856 1.67172C3.53627 1.67268 3.28381 1.67012 3.03136 1.66757C2.50679 1.66226 1.98227 1.65696 1.45942 1.68314C0.931836 1.70956 0.529475 2.00851 0.242214 2.43704C0.201239 2.49817 0.162108 2.56044 0.120476 2.62669C0.0878972 2.67854 0.0537865 2.73282 0.0160616 2.7909ZM6.35955 13.5345C6.46288 13.6341 6.56621 13.7337 6.66956 13.8332C6.94807 14.0821 7.20373 14.309 7.46398 14.5399C7.48207 14.5256 7.49896 14.5129 7.51484 14.5009C7.54615 14.4772 7.57353 14.4565 7.59832 14.4332C8.23494 13.8362 8.87136 13.239 9.50675 12.6408C9.87694 12.2923 10.2468 11.9435 10.6166 11.5946C10.9907 11.2418 11.3647 10.889 11.7391 10.5365C11.9564 10.3319 12.2072 10.3093 12.3854 10.4745C12.5753 10.6505 12.5583 10.8926 12.3319 11.1077C11.3736 12.018 10.4144 12.9275 9.45324 13.8351C9.11835 14.1513 8.78148 14.4656 8.44461 14.7799C8.25199 14.9596 8.05938 15.1393 7.86713 15.3193C7.56283 15.6043 7.37206 15.6039 7.07252 15.3202C6.71338 14.9801 6.3539 14.6403 5.99442 14.3005C5.53964 13.8707 5.08486 13.4408 4.63077 13.0103C4.45095 12.8398 4.42409 12.6034 4.55793 12.4431C4.68676 12.2888 4.95186 12.2687 5.15552 12.4022C5.21775 12.443 5.27557 12.4917 5.32901 12.5429C5.67311 12.8729 6.01633 13.2037 6.35955 13.5345Z" fill="#421A53"/>
</svg>
