<svg width="23" height="19" viewBox="0 0 23 19" fill="none" xmlns="http://www.w3.org/2000/svg">
<path fill-rule="evenodd" clip-rule="evenodd" d="M8.00881 15.6834C7.0626 15.2893 6.09193 15.056 5.09919 14.9289C4.58738 14.8633 4.0686 14.8459 3.55219 14.8286H3.55217L3.55213 14.8286L3.53785 14.8281C3.00032 14.8101 2.69528 14.508 2.69527 13.9562C2.69524 12.9323 2.6958 11.9084 2.69637 10.8844C2.69809 7.7416 2.69981 4.59875 2.68458 1.45599C2.68166 0.852926 3.12479 0.48775 3.62907 0.500314C5.2133 0.539786 6.7432 0.807734 8.16966 1.54052C9.2088 2.07433 10.0577 2.83984 10.6866 3.84239C10.7926 4.01141 10.8629 4.23725 10.8634 4.43704C10.8717 8.02952 10.8714 11.622 10.871 15.2145L10.8709 17.3042L10.8709 17.6352C10.0194 16.7539 9.08202 16.1274 8.00881 15.6834ZM13.7361 17.9092C13.5946 18.0207 13.4531 18.1323 13.3091 18.2394C13.315 18.2444 13.321 18.2495 13.3544 18.261C13.4292 18.2566 13.4886 18.2475 13.5443 18.2389L13.5443 18.2389L13.5444 18.2389C13.5635 18.236 13.5822 18.2331 13.6009 18.2305C13.8457 18.1967 14.0902 18.157 14.3347 18.1173L14.3348 18.1173L14.3349 18.1173L14.335 18.1173L14.335 18.1173H14.3351H14.3351H14.3351H14.3351C14.8918 18.0269 15.4486 17.9366 16.0078 17.9154C17.0037 17.8778 18.0073 17.9167 19.001 18.0021C19.8792 18.0776 20.7539 18.2341 21.6195 18.4095C22.1478 18.5166 22.6087 18.5426 22.9576 18.044C22.9597 18.0409 22.9641 18.0394 22.9695 18.0375C22.9787 18.0344 22.9908 18.0302 23 18.0153C23 13.2818 23 8.56976 22.9843 3.85744C22.6965 3.51474 22.3535 3.3613 21.9148 3.39379L21.8621 3.39759C21.5644 3.41867 21.5626 3.4188 21.5626 3.76311L21.5623 6.29774V6.30645C21.562 8.83 21.5617 11.3535 21.5631 13.8771C21.5638 15.1864 20.6235 16.0857 19.3724 16.1127C18.9187 16.1224 18.4644 16.1548 18.0127 16.2004C16.8445 16.3183 15.7218 16.6209 14.7005 17.2181C14.3611 17.4165 14.0486 17.6629 13.7361 17.9092ZM0.00468506 3.87431L0 3.87903C0 8.61253 0 13.3245 0.0154999 18.0368C0.275825 18.3384 0.564872 18.5579 0.972852 18.4857C1.17208 18.4505 1.37016 18.4073 1.56818 18.3641C1.85767 18.301 2.14704 18.238 2.43965 18.1998C3.3537 18.0804 4.27111 17.9829 5.18945 17.9051C5.62025 17.8686 6.05769 17.8778 6.48998 17.9037C7.17989 17.945 7.86912 18.0068 8.55643 18.0812C8.81048 18.1087 9.06234 18.1574 9.3142 18.206C9.42785 18.228 9.54149 18.2499 9.65533 18.2699C9.66126 18.2647 9.66719 18.2596 9.67241 18.2348C8.92093 17.4771 8.02346 16.9924 7.04653 16.6553C5.95098 16.2772 4.82057 16.1076 3.66438 16.1086C2.34824 16.1098 1.4377 15.1818 1.4376 13.844L1.43745 8.23082L1.43737 3.82385C1.43737 3.80022 1.43789 3.77648 1.4384 3.75272L1.4384 3.75271C1.43989 3.68429 1.44138 3.61575 1.43052 3.54941C1.42228 3.49909 1.37758 3.41635 1.34586 3.41463C1.30319 3.41233 1.26034 3.40937 1.21743 3.4064C0.932621 3.38672 0.644947 3.36685 0.387413 3.53669C0.250249 3.62715 0.131471 3.7467 0.00468555 3.87431L0.00468506 3.87431ZM20.3036 4.34049C20.304 3.38693 20.3044 2.43247 20.3044 1.47685C20.3026 0.815094 19.9994 0.509438 19.3656 0.508289C18.4748 0.506675 17.5973 0.61896 16.7323 0.833288C15.0276 1.25566 13.5686 2.08132 12.5059 3.54539L12.4724 3.59143C12.2987 3.82922 12.1251 4.06702 12.1255 4.39928C12.129 7.51188 12.1291 10.6245 12.1291 13.7371V13.7396C12.1291 14.9382 12.1291 16.1367 12.1294 17.3353C12.1294 17.3851 12.1338 17.4349 12.1394 17.4982C12.1424 17.5325 12.1458 17.5707 12.149 17.6151C12.1858 17.5792 12.2177 17.5484 12.2462 17.5207L12.247 17.52C12.3002 17.4684 12.3419 17.4281 12.3829 17.3869C13.0828 16.6819 13.9027 16.1572 14.7987 15.7623C16.2842 15.1076 17.8527 14.8444 19.4603 14.8348C19.8796 14.8323 20.3177 14.4263 20.3155 13.9534C20.3007 10.7528 20.3021 7.55218 20.3036 4.34137V4.34093V4.34049ZM9.68226 18.2472C9.69412 18.257 9.69696 18.2743 9.6998 18.2917C9.68816 18.2895 9.67651 18.2872 9.66016 18.2777C9.66138 18.2652 9.66731 18.26 9.68226 18.2472ZM13.2988 18.2889C13.3142 18.2826 13.3296 18.2763 13.3362 18.2623C13.3214 18.2495 13.3155 18.2445 13.3047 18.2459C13.2995 18.2645 13.2992 18.2767 13.2988 18.2889Z" fill="#421A53"/>
</svg>
