<svg width="22" height="17" viewBox="0 0 22 17" fill="none" xmlns="http://www.w3.org/2000/svg">
<path d="M4 6.74308V12.1028C4 12.4229 4 12.5829 4.05465 12.7242C4.10299 12.8491 4.18187 12.963 4.28558 13.0573C4.40287 13.1641 4.5634 13.2357 4.88446 13.3788L10.2845 15.7863C10.5468 15.9033 10.678 15.9617 10.8156 15.9848C10.9375 16.0051 11.0625 16.0051 11.1844 15.9848C11.322 15.9617 11.4532 15.9033 11.7155 15.7863L17.1155 13.3788C17.4366 13.2357 17.5971 13.1641 17.7144 13.0573C17.8181 12.963 17.897 12.8491 17.9453 12.7242C18 12.5829 18 12.4229 18 12.1028V6.74308M1 5.40558L10.6422 1.10688C10.7734 1.0484 10.839 1.01915 10.9078 1.00765C10.9687 0.99745 11.0313 0.99745 11.0922 1.00765C11.161 1.01915 11.2266 1.0484 11.3578 1.10688L21 5.40558L11.3578 9.7043C11.2266 9.7628 11.161 9.79204 11.0922 9.80354C11.0313 9.81371 10.9687 9.81371 10.9078 9.80354C10.839 9.79204 10.7734 9.7628 10.6422 9.7043L1 5.40558Z" stroke="#FDFDFD" stroke-linecap="round" stroke-linejoin="round"/>
</svg>
