<svg width="45" height="45" viewBox="0 0 45 45" fill="none" xmlns="http://www.w3.org/2000/svg">
<path d="M22.5197 3.0143C24.2443 2.95822 25.3699 3.74872 25.9955 5.15362C27.1263 7.69303 28.2171 10.2473 29.3239 12.7957C29.8221 13.9429 30.3185 15.0907 30.8668 16.356C31.891 13.9676 32.8566 11.7065 33.8301 9.44828C34.8321 7.12412 35.7888 4.78199 36.8638 2.48629C37.847 0.38681 40.6089 -0.55084 42.9212 0.329989C44.119 0.786263 44.8168 1.59649 44.9395 2.79167C44.9734 3.12166 44.9971 3.45397 44.9972 3.78522C45.0001 15.6353 45.0031 27.4854 44.993 39.3356C44.9922 40.2856 44.9285 41.238 44.8387 42.1849C44.6999 43.6481 43.7182 44.6508 42.1214 44.8889C39.393 45.2957 37.5825 44.4791 36.6559 42.332C34.7746 37.9727 32.8887 33.6151 30.9795 29.1678C30.8497 28.8572 30.7399 28.6374 30.6415 28.4135C29.8087 26.518 28.9779 24.6219 28.1412 22.6782C26.0909 17.8536 23.9316 13.1139 22.5047 8.07967C22.5142 6.35224 22.5169 4.68327 22.5197 3.0143ZM36.0419 16.8985C35.297 18.6494 34.5358 20.3948 33.823 22.1565C33.7043 22.4498 33.692 22.8479 33.8057 23.1407C35.3662 27.1599 36.962 31.1675 38.5377 35.1818C38.8824 36.0598 39.1826 36.9524 39.5406 37.9414C39.5406 27.8911 39.5406 17.9777 39.5406 8.06431C39.4976 8.06197 39.4547 8.05963 39.4117 8.0573C38.3017 10.9718 37.1918 13.8862 36.0419 16.8985Z" fill="#030303"/>
<path d="M14.0816 28.9068C12.9239 31.5755 11.7647 34.2437 10.6091 36.9133C9.82663 38.7211 9.04871 40.5305 8.26999 42.3396C7.17042 44.8941 4.61059 45.3315 2.28317 44.8014C1.031 44.5163 0.170656 43.4998 0.0355212 42.2919C0.00112753 41.9845 0.00175452 41.6729 0.00171469 41.3632C0.000184271 29.452 -0.00300545 17.5408 0.00706351 5.62954C0.00786578 4.68052 0.0700104 3.729 0.160156 2.78315C0.300268 1.31302 1.54947 0.255456 3.25901 0.104655C5.99275 -0.136495 7.50206 0.758488 8.54838 3.19335C10.3778 7.45046 12.2257 11.7009 14.0797 16.0485C13.622 17.3129 13.1726 18.491 12.6715 19.6505C12.278 20.5609 11.8206 21.4483 11.3666 22.2957C9.34253 17.2542 7.34348 12.2629 5.47884 7.60721C5.47884 17.0892 5.47884 26.9194 5.47884 36.7495C5.70997 36.6651 5.77406 36.5609 5.8156 36.4496C6.47144 34.6928 7.08998 32.9237 7.78571 31.1803C8.96147 28.234 10.1857 25.3039 11.4085 22.4108C11.497 22.5683 11.5825 22.6762 11.6337 22.7964C12.4666 24.752 13.2953 26.7091 14.1115 28.7053C14.0926 28.7988 14.0871 28.8528 14.0816 28.9068Z" fill="#030303"/>
<path d="M14.1274 28.9308C14.0871 28.8528 14.0926 28.7988 14.1485 28.6747C14.5027 27.9307 14.8078 27.2573 15.1102 26.5829C15.6947 25.2794 16.2777 23.9754 16.9028 22.6997C19.0194 27.4044 21.0808 32.0855 22.5289 37.096C23.192 35.2018 23.7426 33.438 24.4262 31.7183C25.6233 28.7066 26.902 25.7219 28.1465 22.7259C28.9779 24.6219 29.8087 26.518 30.6415 28.4135C30.7399 28.6374 30.8497 28.8572 30.9521 29.1254C30.8077 29.3328 30.6122 29.4742 30.5314 29.6578C29.1231 32.8577 27.7297 36.0631 26.3301 39.2663C26.1957 39.5739 26.0451 39.8758 25.8949 40.1774C25.2236 41.5253 24.0336 42.0888 22.4603 42.0769C20.9078 42.0652 19.7309 41.4769 19.1293 40.1416C17.9596 37.5452 16.839 34.9303 15.6909 32.3257C15.1942 31.1987 14.6797 30.0782 14.1274 28.9308Z" fill="#BD8AD3"/>
<path d="M16.8613 22.6716C16.2777 23.9754 15.6947 25.2794 15.1102 26.5829C14.8078 27.2573 14.5027 27.9307 14.1619 28.6352C13.2953 26.7091 12.4666 24.752 11.6337 22.7964C11.5825 22.6762 11.497 22.5683 11.4002 22.4049C11.373 22.3552 11.3916 22.346 11.3916 22.346C11.8206 21.4483 12.278 20.5609 12.6715 19.6505C13.1726 18.491 13.622 17.3129 14.1032 16.0923C14.2476 15.8429 14.418 15.657 14.5122 15.443C16.045 11.9617 17.5439 8.46783 19.1046 4.99711C19.7855 3.48287 20.8891 2.86301 22.4809 2.98023C22.5169 4.68327 22.5142 6.35224 22.4696 8.12048C21.1004 11.7385 19.7822 15.2601 18.4411 18.7744C17.9421 20.0823 17.3895 21.373 16.8613 22.6716Z" fill="#A10EFA"/>
</svg>
