<svg width="24" height="16" viewBox="0 0 24 16" fill="none" xmlns="http://www.w3.org/2000/svg">
<path d="M16.5957 7.75977C18.4885 7.75977 20.1173 6.05117 20.1173 3.82649C20.1173 1.62849 18.4797 3.11424e-05 16.5957 3.11424e-05C14.7116 3.11424e-05 13.074 1.66409 13.074 3.84429C13.074 6.05117 14.7028 7.75977 16.5957 7.75977ZM6.46217 7.96445C8.09974 7.96445 9.52603 6.46945 9.52603 4.53842C9.52603 2.62519 8.09096 1.21025 6.46217 1.21025C4.82464 1.21025 3.38079 2.66076 3.38957 4.55622C3.38957 6.46945 4.81586 7.96445 6.46217 7.96445ZM1.5495 16H8.24061C7.32501 14.6563 8.44311 11.9511 10.336 10.4739C9.35876 9.81538 8.09974 9.32593 6.45339 9.32593C2.48276 9.32593 0 12.2892 0 14.7542C0 15.5551 0.440186 16 1.5495 16ZM11.0579 16H22.1246C23.5068 16 24 15.5996 24 14.8165C24 12.5206 21.1562 9.35262 16.5868 9.35262C12.0264 9.35262 9.18266 12.5206 9.18266 14.8165C9.18266 15.5996 9.67569 16 11.0579 16Z" fill="#421A53"/>
</svg>
