<svg width="24" height="24" viewBox="0 0 24 24" fill="none" xmlns="http://www.w3.org/2000/svg">
<path fill-rule="evenodd" clip-rule="evenodd" d="M12 24C18.6274 24 24 18.6274 24 12C24 5.37258 18.6274 0 12 0C5.37258 0 0 5.37258 0 12C0 18.6274 5.37258 24 12 24ZM13.7035 11.8588C12.3586 13.1886 11.2719 14.2631 10.133 15.3899C9.9749 15.5469 9.81232 15.6936 9.65332 15.837C9.28897 16.1656 8.9434 16.4772 8.71365 16.8587C8.57429 17.09 8.60961 17.4266 8.64493 17.7632C8.66079 17.9144 8.67666 18.0655 8.6767 18.2072C8.82141 18.2063 8.98464 18.2251 9.14787 18.2438C9.50027 18.2843 9.85266 18.3248 10.0188 18.168C11.4238 16.8418 12.7846 15.4688 14.1455 14.0959C14.5948 13.6426 15.0441 13.1893 15.495 12.7377C15.9414 12.2906 16.0219 11.7997 15.5673 11.3396C15.4833 11.2546 15.3993 11.1696 15.3153 11.0846C13.5437 9.29136 11.7715 7.49757 9.94131 5.76545C9.72295 5.55878 8.87804 5.61178 8.73435 5.82334C8.52134 6.13694 8.48333 6.86291 8.7078 7.12797C9.54107 8.11193 10.487 9.00432 11.4281 9.89216L11.4848 9.94571C11.965 10.3987 12.4723 10.823 12.992 11.2577C13.2273 11.4545 13.4652 11.6534 13.7042 11.8581L13.7035 11.8588Z" fill="white"/>
</svg>
